{"accessors" : [{"bufferView" : 0, "byteOffset" : 0, "componentType" : 5123, "count" : 2160, "type" : "SCALAR", "max" : [1815], "min" : [0]}, {"bufferView" : 1, "byteOffset" : 0, "componentType" : 5126, "count" : 1816, "type" : "VEC3", "max" : [1.0000008344650269, 1, 3.0000009536743164], "min" : [-1.0000001192092896, -1.0000001192092896, -3.0000007152557373], "name" : "POSITION"}, {"bufferView" : 1, "byteOffset" : 12, "componentType" : 5126, "count" : 1816, "type" : "VEC3", "max" : [0.9946243166923523, 0.9918156266212463, 0.9855691194534302], "min" : [-0.9946243166923523, -0.9785851240158081, -0.9904115796089172], "name" : "NORMAL"}, {"bufferView" : 1, "byteOffset" : 24, "componentType" : 5126, "count" : 1816, "type" : "VEC2", "max" : [0.9758737683296204, 0.9831287860870361], "min" : [0.023732908070087433, 0.016603291034698486], "name" : "TEXCOORD_0"}], "asset" : {"generator" : "Aspose.3D 23.7.0", "version" : "2.0"}, "buffers" : [{"uri" : "data:application/octet-stream;base64,", "byteLength" : 73448}], "bufferViews" : [{"buffer" : 0, "byteOffset" : 0, "byteLength" : 4320, "target" : 34963}, {"buffer" : 0, "byteOffset" : 4324, "byteLength" : 69120, "byteStride" : 32, "target" : 34962}], "images" : [{"uri" : "data:image/png;base64,"}], "materials" : [{"name" : "bus_skin", "pbrMetallicRoughness" : {"baseColorFactor" : [1, 1, 1, 1], "baseColorTexture" : {"index" : 0, "texCoord" : 0}, "metallicFactor" : 0, "roughnessFactor" : 0}, "emissiveFactor" : [0, 0, 0], "alphaMode" : "OPAQUE", "doubleSided" : false}], "meshes" : [{"primitives" : [{"attributes" : {"POSITION" : 1, "NORMAL" : 2, "TEXCOORD_0" : 3}, "indices" : 0, "material" : 0, "mode" : 4}]}], "nodes" : [{"mesh" : 0, "name" : "bus"}], "samplers" : [{"magFilter" : 9728, "minFilter" : 9728, "wrapS" : 10497, "wrapT" : 10497}], "scene" : 0, "scenes" : [{"nodes" : [0]}], "textures" : [{"sampler" : 0, "source" : 0, "name" : ""}]}